<svg width="107" height="16" viewBox="0 0 107 16" fill="none" xmlns="http://www.w3.org/2000/svg">
<path fill-rule="evenodd" clip-rule="evenodd" d="M80.5 1.66893e-06L75 16L89 16L83.5 0L80.5 1.66893e-06ZM82 4L84.9999 13H79L82 4ZM37 16H28L28 2.38419e-06L31 2.14577e-06L31 13L37 13V16ZM10 2.38419e-06H0V16H3V10H8V7H3V3H10V2.38419e-06ZM40 16H49V13L43 13V2.14577e-06L40 2.38419e-06V16ZM92 16V2.38419e-06H95V16H92ZM107 16H98V2.38419e-06L101 2.14577e-06V13L107 13V16ZM16 2.38419e-06H13V10C13 13.3137 15.6863 16 19 16C22.3137 16 25 13.3137 25 10V2.38419e-06H22V3V6V10C22 11.6569 20.6569 13 19 13C17.3431 13 16 11.6569 16 10V6V3V2.38419e-06ZM62 6L72 2.38419e-06H52L62 6Z" fill="#313131"/>
<path fill-rule="evenodd" clip-rule="evenodd" d="M62 9L52 3V16H72V3L62 9Z" fill="url(#paint0_linear_111_2595)"/>
<defs>
<linearGradient id="paint0_linear_111_2595" x1="52.2128" y1="9.50001" x2="72" y2="9.50001" gradientUnits="userSpaceOnUse">
<stop stop-color="#C64230"/>
<stop offset="1" stop-color="#EA6B23"/>
</linearGradient>
</defs>
</svg>
